<svg xmlns="http://www.w3.org/2000/svg" viewBox="0 0 1000 1000"><path d="M949 285.7c-85-12.2-175.5-21.1-270-26.1l157.8-157.8-61.3-61.3-214.8 215c-20.1-.3-40.3-.5-60.7-.5L255 10l-61.3 61.3 185.9 185.9c-115.7 4-226.2 13.8-328.6 28.5-26.3 103.1-41 217-41 336.8 0 119.8 14.6 233.7 41 336.8C188.5 979.1 340.3 990 500 990s311.5-11 449-30.7c26.3-103.1 41-217 41-336.8 0-119.8-14.6-233.7-41-336.8zM836.8 847c-103.1 13.2-217 20.5-336.8 20.5-119.8 0-233.7-7.3-336.8-20.5-19.8-68.7-30.7-144.7-30.7-224.5 0-79.8 11-155.8 30.7-224.5 103.1-13.2 217-20.5 336.8-20.5 119.8 0 233.7 7.3 336.8 20.5 19.8 68.7 30.7 144.7 30.7 224.5 0 79.9-11 155.8-30.7 224.5z" fill="#fff"/></svg>