<svg xmlns="http://www.w3.org/2000/svg" viewBox="0 0 1000 1000"><g fill="#fff"><path d="M500 155.7c-103.1 0-187 83.9-187 187s83.9 187 187 187 187-83.9 187-187-83.9-187-187-187zm96.2 208.2l-114.8 83.4c-4.6 3.3-10 5-15.4 5-4.1 0-8.1-.9-11.9-2.9-8.8-4.5-14.3-13.5-14.3-23.3V259.3c0-9.8 5.5-18.9 14.3-23.3 8.8-4.5 19.3-3.6 27.3 2.1l114.8 83.4c6.8 4.9 10.8 12.8 10.8 21.2s-4.1 16.3-10.8 21.2z"/><path d="M158.3 546.1c6.4-5.5 13.5-10.4 21.2-14.6l5-2.8V71.9h631v456.8l5 2.8c7.6 4.2 14.8 9.2 21.2 14.6 10.3 8.8 18.9 19.2 25.5 30.7l18.2 31.9V51.9c0-23.1-18.8-41.9-41.9-41.9h-687c-23.1 0-41.9 18.8-41.9 41.9v556.8l18.2-31.9c6.6-11.5 15.2-21.9 25.5-30.7z"/><path d="M507.4 666c31.5 0 60.4 9.7 82.9 25.7v-67.6c0-39.8-37.6-72-84.1-72h-8.4c-46.4 0-84.1 32.2-84.1 72v68.2c22.6-16.4 51.8-26.3 83.7-26.3h10zM254.6 552.2h-8.4c-46.4 0-84.1 32.2-84.1 72v46.6c11.8-3 24.3-4.7 37.2-4.7h10c61.2 0 112.7 36.5 126.2 85.5 2-6.2 3.1-12.7 3.1-19.5V624.2c.1-39.8-37.6-72-84-72zM800.7 666c12.9 0 25.4 1.7 37.2 4.7v-46.6c0-39.8-37.6-72-84.1-72h-8.4c-46.4 0-84.1 32.2-84.1 72V732c0 6.8 1.1 13.3 3.1 19.5 13.6-48.9 65-85.5 126.2-85.5h10.1zm-293.3 40.6h-9.9c-55 0-99.6 36.3-99.6 81V909c0 44.7 44.6 81 99.6 81h9.9c55 0 99.6-36.3 99.6-81V787.6c0-44.7-44.6-81-99.6-81z"/><path d="M209.3 706.6h-10c-55 0-99.6 36.3-99.6 81V909c0 44.7 44.6 81 99.6 81h10c55 0 99.6-36.3 99.6-81V787.6c0-44.7-44.6-81-99.6-81zm591.4 0h-9.9c-55 0-99.6 36.3-99.6 81V909c0 44.7 44.6 81 99.6 81h9.9c55 0 99.6-36.3 99.6-81V787.6c0-44.7-44.6-81-99.6-81z"/></g></svg>