<svg xmlns="http://www.w3.org/2000/svg" viewBox="0 0 1000 1000"><path d="M972.2 893.1L770.3 691.3c56.8-72.4 91-163.4 91-262.5 0-235.1-190.6-425.7-425.7-425.7C200.6 3.1 10 193.6 10 428.7c0 235.1 190.6 425.7 425.7 425.7 92 0 177-29.5 246.6-79.1l203.9 203.9c23.7 23.7 62.2 23.7 86 0 23.7-23.8 23.7-62.3 0-86.1zM672 642.9c-8.1 3-15.8 7.3-22.3 13.8-6 6-10.4 12.9-13.4 20.3-54.8 44.4-124.6 71-200.6 71-176.3 0-319.3-142.9-319.3-319.3 0-176.3 142.9-319.3 319.3-319.3S755 252.3 755 428.7c-.1 82.5-31.6 157.5-83 214.2z" fill="#fff"/></svg>