<?xml version="1.0" encoding="UTF-8" standalone="no"?>
<!-- Svg Vector Icons : http://www.onlinewebfonts.com/icon -->

<svg
   xmlns:dc="http://purl.org/dc/elements/1.1/"
   xmlns:cc="http://creativecommons.org/ns#"
   xmlns:rdf="http://www.w3.org/1999/02/22-rdf-syntax-ns#"
   xmlns:svg="http://www.w3.org/2000/svg"
   xmlns="http://www.w3.org/2000/svg"
   xmlns:sodipodi="http://sodipodi.sourceforge.net/DTD/sodipodi-0.dtd"
   xmlns:inkscape="http://www.inkscape.org/namespaces/inkscape"
   version="1.1"
   x="0px"
   y="0px"
   viewBox="0 0 1000 1000"
   enable-background="new 0 0 1000 1000"
   xml:space="preserve"
   id="svg3387"
   inkscape:version="0.91 r13725"
   sodipodi:docname="cinema.svg"><defs
   id="defs3445" /><sodipodi:namedview
   pagecolor="#ffffff"
   bordercolor="#666666"
   borderopacity="1"
   objecttolerance="10"
   gridtolerance="10"
   guidetolerance="10"
   inkscape:pageopacity="0"
   inkscape:pageshadow="2"
   inkscape:window-width="640"
   inkscape:window-height="480"
   id="namedview3443"
   showgrid="false"
   inkscape:zoom="0.236"
   inkscape:cx="500"
   inkscape:cy="500"
   inkscape:window-x="278"
   inkscape:window-y="85"
   inkscape:window-maximized="0"
   inkscape:current-layer="svg3387" />
<metadata
   id="metadata3389"> Svg Vector Icons : http://www.onlinewebfonts.com/icon <rdf:RDF><cc:Work
     rdf:about=""><dc:format>image/svg+xml</dc:format><dc:type
       rdf:resource="http://purl.org/dc/dcmitype/StillImage" /></cc:Work></rdf:RDF></metadata>
<g
   id="g3391"
   style="fill:#ffffff"><g
     id="g3393"
     style="fill:#ffffff"><g
       id="g3395"
       style="fill:#ffffff"><path
         d="M500,155.7c-103.1,0-187,83.9-187,187c0,103.1,83.9,187,187,187c103.1,0,187-83.9,187-187C687,239.6,603.1,155.7,500,155.7z M596.2,363.9l-114.8,83.4c-4.6,3.3-10,5-15.4,5c-4.1,0-8.1-0.9-11.9-2.9c-8.8-4.5-14.3-13.5-14.3-23.3V259.3c0-9.8,5.5-18.9,14.3-23.3c8.8-4.5,19.3-3.6,27.3,2.1l114.8,83.4c6.8,4.9,10.8,12.8,10.8,21.2S602.9,359,596.2,363.9z"
         id="path3397"
         style="fill:#ffffff" /><path
         d="M158.3,546.1c6.4-5.5,13.5-10.4,21.2-14.6l5-2.8V71.9h631v456.8l5,2.8c7.6,4.2,14.8,9.2,21.2,14.6c10.3,8.8,18.9,19.2,25.5,30.7l18.2,31.9V51.9c0-23.1-18.8-41.9-41.9-41.9h-687c-23.1,0-41.9,18.8-41.9,41.9v556.8l18.2-31.9C139.4,565.3,148,554.9,158.3,546.1z"
         id="path3399"
         style="fill:#ffffff" /><path
         d="M507.4,666c31.5,0,60.4,9.7,82.9,25.7v-67.6c0-39.8-37.6-72-84.1-72h-8.4c-46.4,0-84.1,32.2-84.1,72v68.2c22.6-16.4,51.8-26.3,83.7-26.3H507.4L507.4,666z"
         id="path3401"
         style="fill:#ffffff" /><path
         d="M254.6,552.2h-8.4c-46.4,0-84.1,32.2-84.1,72v46.6c11.8-3,24.3-4.7,37.2-4.7h10c61.2,0,112.7,36.5,126.2,85.5c2-6.2,3.1-12.7,3.1-19.5V624.2C338.7,584.4,301,552.2,254.6,552.2z"
         id="path3403"
         style="fill:#ffffff" /><path
         d="M800.7,666c12.9,0,25.4,1.7,37.2,4.7v-46.6c0-39.8-37.6-72-84.1-72h-8.4c-46.4,0-84.1,32.2-84.1,72V732c0,6.8,1.1,13.3,3.1,19.5c13.6-48.9,65-85.5,126.2-85.5L800.7,666L800.7,666z"
         id="path3405"
         style="fill:#ffffff" /><path
         d="M507.4,706.6h-9.9c-55,0-99.6,36.3-99.6,81V909c0,44.7,44.6,81,99.6,81h9.9c55,0,99.6-36.3,99.6-81V787.6C607,742.9,562.4,706.6,507.4,706.6z"
         id="path3407"
         style="fill:#ffffff" /><path
         d="M209.3,706.6h-10c-55,0-99.6,36.3-99.6,81V909c0,44.7,44.6,81,99.6,81h10c55,0,99.6-36.3,99.6-81V787.6C308.9,742.9,264.3,706.6,209.3,706.6z"
         id="path3409"
         style="fill:#ffffff" /><path
         d="M800.7,706.6h-9.9c-55,0-99.6,36.3-99.6,81V909c0,44.7,44.6,81,99.6,81h9.9c55,0,99.6-36.3,99.6-81V787.6C900.3,742.9,855.7,706.6,800.7,706.6z"
         id="path3411"
         style="fill:#ffffff" /></g></g><g
     id="g3413"
     style="fill:#ffffff" /><g
     id="g3415"
     style="fill:#ffffff" /><g
     id="g3417"
     style="fill:#ffffff" /><g
     id="g3419"
     style="fill:#ffffff" /><g
     id="g3421"
     style="fill:#ffffff" /><g
     id="g3423"
     style="fill:#ffffff" /><g
     id="g3425"
     style="fill:#ffffff" /><g
     id="g3427"
     style="fill:#ffffff" /><g
     id="g3429"
     style="fill:#ffffff" /><g
     id="g3431"
     style="fill:#ffffff" /><g
     id="g3433"
     style="fill:#ffffff" /><g
     id="g3435"
     style="fill:#ffffff" /><g
     id="g3437"
     style="fill:#ffffff" /><g
     id="g3439"
     style="fill:#ffffff" /><g
     id="g3441"
     style="fill:#ffffff" /></g>
</svg>