<?xml version="1.0" encoding="UTF-8" standalone="no"?>
<!-- Svg Vector Icons : http://www.onlinewebfonts.com/icon -->

<svg
   xmlns:dc="http://purl.org/dc/elements/1.1/"
   xmlns:cc="http://creativecommons.org/ns#"
   xmlns:rdf="http://www.w3.org/1999/02/22-rdf-syntax-ns#"
   xmlns:svg="http://www.w3.org/2000/svg"
   xmlns="http://www.w3.org/2000/svg"
   xmlns:sodipodi="http://sodipodi.sourceforge.net/DTD/sodipodi-0.dtd"
   xmlns:inkscape="http://www.inkscape.org/namespaces/inkscape"
   version="1.1"
   x="0px"
   y="0px"
   viewBox="0 0 1000 1000"
   enable-background="new 0 0 1000 1000"
   xml:space="preserve"
   id="svg3447"
   inkscape:version="0.91 r13725"
   sodipodi:docname="home.svg"><defs
   id="defs3492" /><sodipodi:namedview
   pagecolor="#ffffff"
   bordercolor="#666666"
   borderopacity="1"
   objecttolerance="10"
   gridtolerance="10"
   guidetolerance="10"
   inkscape:pageopacity="0"
   inkscape:pageshadow="2"
   inkscape:window-width="640"
   inkscape:window-height="480"
   id="namedview3490"
   showgrid="false"
   inkscape:zoom="0.236"
   inkscape:cx="500"
   inkscape:cy="500"
   inkscape:window-x="403"
   inkscape:window-y="132"
   inkscape:window-maximized="0"
   inkscape:current-layer="svg3447" />
<metadata
   id="metadata3449"> Svg Vector Icons : http://www.onlinewebfonts.com/icon <rdf:RDF><cc:Work
     rdf:about=""><dc:format>image/svg+xml</dc:format><dc:type
       rdf:resource="http://purl.org/dc/dcmitype/StillImage" /></cc:Work></rdf:RDF></metadata>
<g
   id="g3451"
   style="fill:#ffffff"><g
     id="g3453"
     style="fill:#ffffff"><g
       id="Home"
       style="fill:#ffffff"><g
         id="g3456"
         style="fill:#ffffff"><path
           d="M880.4,374.5L527.1,21.2c-15-15-39.2-15-54.2,0L119.6,374.5c-11.5,11.5-18,27.1-18,43.4v510.8c0,33.9,27.5,61.3,61.3,61.3h214.5c33.8,0,61.3-27.5,61.3-61.3V714.2h122.6v214.5c0,33.9,27.4,61.3,61.3,61.3h214.5c33.8,0,61.3-27.5,61.3-61.3V417.9C898.3,401.6,891.9,386,880.4,374.5z M806.4,898.1H653.2V683.6c0-33.8-27.5-61.3-61.3-61.3H408.1c-33.9,0-61.3,27.5-61.3,61.3v214.5H193.6V430.6L500,124.1l306.4,306.4V898.1z"
           id="path3458"
           style="fill:#ffffff" /></g></g></g><g
     id="g3460"
     style="fill:#ffffff" /><g
     id="g3462"
     style="fill:#ffffff" /><g
     id="g3464"
     style="fill:#ffffff" /><g
     id="g3466"
     style="fill:#ffffff" /><g
     id="g3468"
     style="fill:#ffffff" /><g
     id="g3470"
     style="fill:#ffffff" /><g
     id="g3472"
     style="fill:#ffffff" /><g
     id="g3474"
     style="fill:#ffffff" /><g
     id="g3476"
     style="fill:#ffffff" /><g
     id="g3478"
     style="fill:#ffffff" /><g
     id="g3480"
     style="fill:#ffffff" /><g
     id="g3482"
     style="fill:#ffffff" /><g
     id="g3484"
     style="fill:#ffffff" /><g
     id="g3486"
     style="fill:#ffffff" /><g
     id="g3488"
     style="fill:#ffffff" /></g>
</svg>