<?xml version="1.0" encoding="UTF-8" standalone="no"?>
<!-- Svg Vector Icons : http://www.onlinewebfonts.com/icon -->

<svg
   xmlns:dc="http://purl.org/dc/elements/1.1/"
   xmlns:cc="http://creativecommons.org/ns#"
   xmlns:rdf="http://www.w3.org/1999/02/22-rdf-syntax-ns#"
   xmlns:svg="http://www.w3.org/2000/svg"
   xmlns="http://www.w3.org/2000/svg"
   xmlns:sodipodi="http://sodipodi.sourceforge.net/DTD/sodipodi-0.dtd"
   xmlns:inkscape="http://www.inkscape.org/namespaces/inkscape"
   version="1.1"
   x="0px"
   y="0px"
   viewBox="0 0 1000 1000"
   enable-background="new 0 0 1000 1000"
   xml:space="preserve"
   id="svg2"
   inkscape:version="0.91 r13725"
   sodipodi:docname="search.svg"><defs
   id="defs47" /><sodipodi:namedview
   pagecolor="#ffffff"
   bordercolor="#666666"
   borderopacity="1"
   objecttolerance="10"
   gridtolerance="10"
   guidetolerance="10"
   inkscape:pageopacity="0"
   inkscape:pageshadow="2"
   inkscape:window-width="1366"
   inkscape:window-height="705"
   id="namedview45"
   showgrid="false"
   inkscape:zoom="0.236"
   inkscape:cx="500"
   inkscape:cy="500"
   inkscape:window-x="-8"
   inkscape:window-y="-8"
   inkscape:window-maximized="1"
   inkscape:current-layer="svg2" />
<metadata
   id="metadata4"> Svg Vector Icons : http://www.onlinewebfonts.com/icon <rdf:RDF><cc:Work
     rdf:about=""><dc:format>image/svg+xml</dc:format><dc:type
       rdf:resource="http://purl.org/dc/dcmitype/StillImage" /></cc:Work></rdf:RDF></metadata>
<g
   id="g6"
   style="fill:#ffffff"><g
     id="g8"
     style="fill:#ffffff"><g
       id="Search_1_"
       style="fill:#ffffff"><g
         id="g11"
         style="fill:#ffffff"><path
           d="M972.2,893.1L770.3,691.3c56.8-72.4,91-163.4,91-262.5c0-235.1-190.6-425.7-425.7-425.7C200.6,3.1,10,193.6,10,428.7c0,235.1,190.6,425.7,425.7,425.7c92,0,177-29.5,246.6-79.1l203.9,203.9c23.7,23.7,62.2,23.7,86,0C995.9,955.4,995.9,916.9,972.2,893.1z M672,642.9c-8.1,3-15.8,7.3-22.3,13.8c-6,6-10.4,12.9-13.4,20.3c-54.8,44.4-124.6,71-200.6,71c-176.3,0-319.3-142.9-319.3-319.3c0-176.3,142.9-319.3,319.3-319.3s319.3,142.9,319.3,319.3C754.9,511.2,723.4,586.2,672,642.9z"
           id="path13"
           style="fill:#ffffff" /></g></g></g><g
     id="g15"
     style="fill:#ffffff" /><g
     id="g17"
     style="fill:#ffffff" /><g
     id="g19"
     style="fill:#ffffff" /><g
     id="g21"
     style="fill:#ffffff" /><g
     id="g23"
     style="fill:#ffffff" /><g
     id="g25"
     style="fill:#ffffff" /><g
     id="g27"
     style="fill:#ffffff" /><g
     id="g29"
     style="fill:#ffffff" /><g
     id="g31"
     style="fill:#ffffff" /><g
     id="g33"
     style="fill:#ffffff" /><g
     id="g35"
     style="fill:#ffffff" /><g
     id="g37"
     style="fill:#ffffff" /><g
     id="g39"
     style="fill:#ffffff" /><g
     id="g41"
     style="fill:#ffffff" /><g
     id="g43"
     style="fill:#ffffff" /></g>
</svg>